<svg xmlns="http://www.w3.org/2000/svg" xmlns:xlink="http://www.w3.org/1999/xlink" width="200" height="200" class="icon" p-id="1979" t="1554566557141" version="1.1" viewBox="0 0 1024 1024"><defs><style type="text/css"/></defs><path d="M512.055704 0C229.277565 0 0 229.22805 0 511.993811s229.277565 512.006189 512.055704 512.006189 511.993811-229.240429 511.993811-512.006189S794.821464 0 512.055704 0z m0 921.603714c-225.861054 0.037136-409.609903-183.748849-409.609903-409.609903S286.19465 102.396286 512.055704 102.396286s409.597524 183.748849 409.597524 409.597525-183.748849 409.647039-409.597524 409.647039z" p-id="1980"/><path d="M450.96701 300.083508c-22.021638-16.525513-53.45106-0.804613-53.451059 26.725529v370.369547c0 27.530143 31.429421 43.251043 53.451059 26.72553l246.904779-185.184774a33.422386 33.422386 0 0 0 0-53.451059z" p-id="1981"/></svg>